<svg width="695" height="142" viewBox="0 0 695 142" fill="none" xmlns="http://www.w3.org/2000/svg">
  <path d="M673.298 81.3211C670.733 80.1241 668.681 79.2691 666.8 78.0721C662.696 75.6781 658.763 73.4551 654.659 70.8901C650.384 68.4961 648.674 64.2211 647.306 59.7751C646.451 56.6971 647.99 55.3291 651.068 56.3551C652.778 56.8681 654.488 57.7231 656.198 58.5781C666.629 64.3921 676.889 70.2061 687.32 76.0201C692.108 78.5851 693.134 83.7151 694.844 88.3321C695.015 89.0161 694.16 90.5551 693.305 91.0681C691.082 92.4361 688.688 93.8041 686.123 94.6591C670.733 100.131 655.172 105.603 639.782 110.904C638.243 111.588 636.704 112.101 635.336 112.443C631.403 113.64 630.719 113.298 629.18 110.562C627.47 106.8 627.47 104.919 630.548 102.696C632.771 100.986 634.994 99.4471 637.559 98.2501C647.648 93.2911 658.079 88.5031 668.339 83.3731C669.707 82.8601 671.246 82.3471 673.298 81.3211Z" fill="#1B1916"></path>
  <path d="M580.314 137.58C577.236 134.844 573.987 133.134 572.277 130.398C570.909 128.517 571.08 125.268 571.764 122.874C574.158 112.101 577.75 101.499 583.222 92.0941C589.378 81.4921 595.533 70.8901 602.715 60.9721C615.54 42.8461 629.221 25.4041 642.559 7.44911C643.072 6.9361 643.756 6.08111 644.269 5.56811C645.637 4.20011 646.834 1.63511 648.886 3.17411C650.425 4.37111 651.793 6.9361 651.964 8.81711C652.135 10.6981 651.109 12.9211 650.254 14.8021C647.176 20.6161 644.098 26.0881 640.849 31.7311C624.433 58.2361 607.675 84.5701 593.311 112.101C589.891 119.112 586.3 125.952 583.051 132.621C582.367 133.989 581.511 135.357 580.314 137.58Z" fill="#1B1916"></path>
  <path d="M513.01 81.4921C511.3 78.9271 509.59 76.7041 508.222 74.6521C509.419 71.4031 512.155 70.8901 514.549 70.3771C518.14 69.6931 520.021 67.4701 521.56 64.3921C528.058 52.5931 534.556 40.9651 541.054 29.3371C541.738 27.7981 542.593 26.4301 543.961 24.3781C542.08 24.3781 540.883 24.2071 539.686 24.2071C536.437 24.3781 535.069 23.3521 534.385 20.1031C533.53 17.1961 535.411 16.3411 537.463 15.6571C545.158 13.2631 552.682 11.0401 560.377 9.67211C571.15 7.7911 581.923 5.56811 592.696 4.02911C596.458 3.34511 600.391 3.8581 604.495 4.37111C607.402 4.7131 610.822 11.8951 609.283 14.2891C608.599 15.1441 607.231 15.6571 606.205 15.8281C599.194 17.1961 592.183 18.5641 585.343 19.5901C577.306 20.6161 569.44 21.1291 561.403 21.8131C558.154 22.1551 556.444 23.5231 555.076 26.7721C550.459 37.3741 545.5 47.8051 540.37 58.2361C539.686 59.9461 538.831 61.8271 537.805 64.3921C542.251 63.5371 546.355 62.6821 550.288 62.1691C558.496 61.1431 566.704 59.9461 574.912 59.2621C577.135 59.0911 580.042 59.2621 581.239 60.4591C583.291 62.6821 584.488 65.5891 585.343 68.3251C585.856 70.7191 583.462 71.4031 581.581 71.7451C576.793 72.4291 572.005 73.1131 567.217 73.7971C555.931 75.1651 544.987 76.7041 533.701 78.0721C531.307 78.2431 530.623 79.7821 529.768 81.6631C526.519 89.1871 523.099 96.5401 519.679 104.064C515.746 112.785 511.642 121.677 507.538 130.398C507.025 131.253 506.512 132.108 505.828 132.792C499.159 130.056 498.133 128.517 499.159 122.019C500.698 110.904 503.947 100.644 508.735 90.7261C510.274 87.6481 511.642 84.5701 513.01 81.4921Z" fill="#1B1916"></path>
  <path d="M453.069 45.0691C444.519 64.3921 434.601 82.3471 431.523 104.235C433.917 102.525 435.456 101.67 436.653 100.473C444.177 93.4621 451.872 86.7931 459.225 79.4401C469.827 69.3511 480.087 58.9201 490.518 48.4891C494.451 44.5561 497.7 39.9391 501.462 35.8351C504.882 32.0731 506.079 31.9021 510.183 34.9801C518.562 41.3071 518.733 41.4781 513.945 51.0541C503.856 71.2321 493.596 91.2391 483.507 111.417C482.31 113.469 481.626 115.692 480.771 118.086C479.916 120.651 478.89 121.164 476.496 120.138C475.128 119.454 473.931 118.257 472.563 117.573C469.314 115.863 468.288 113.298 468.801 109.878C469.656 102.867 471.366 96.1981 474.444 89.8711C475.47 87.4771 476.496 85.0831 477.009 82.1761C471.879 86.9641 466.749 91.9231 461.448 96.7111C457.002 101.157 452.385 105.261 447.597 109.194C445.545 110.904 443.493 112.443 441.441 113.982C436.824 117.231 432.207 117.573 427.419 113.982C426.564 113.298 425.538 112.614 424.512 112.101C420.066 109.536 417.672 105.603 418.014 100.644C418.356 95.3431 418.698 90.0421 419.895 85.0831C423.657 70.7191 430.155 57.3811 438.021 45.0691C442.98 37.0321 446.571 39.9391 453.069 45.0691Z" fill="#1B1916"></path>
  <path d="M376.853 109.194C378.905 108.51 379.76 108.51 380.786 107.997C387.968 105.432 394.808 102.867 401.648 100.473C404.726 99.1051 407.633 99.7891 410.027 102.183C411.908 103.893 413.789 105.774 415.328 107.484C418.064 110.904 417.209 113.469 413.447 114.495C407.12 116.205 400.793 117.744 394.637 119.625C385.232 122.703 375.485 125.61 367.619 130.911C365.909 131.766 364.37 131.595 363.173 130.569C360.095 127.833 357.359 125.268 354.794 122.703C352.913 120.993 353.084 119.454 353.768 117.744C355.649 112.956 357.701 108.51 359.582 103.893C372.92 72.9421 386.429 41.8201 400.28 10.6981C400.964 9.15909 401.819 7.79109 402.845 6.25209C409.343 10.3561 410.882 12.9211 409.685 19.2481C409.172 22.6681 407.975 26.4301 406.778 29.8501C397.544 54.4741 388.31 78.9271 378.905 103.38C378.221 104.919 377.537 106.287 376.853 109.194Z" fill="#1B1916"></path>
  <path d="M344.9 126.465C341.993 124.584 339.086 123.216 336.692 121.335C335.495 120.309 334.982 118.086 334.982 116.547C334.982 112.443 335.495 108.339 335.666 104.235C335.837 102.012 336.179 99.7891 336.35 96.8821C331.049 98.2501 326.261 99.4471 321.644 101.157C320.105 101.67 318.908 103.209 318.053 104.577C313.949 110.733 310.016 117.06 306.083 123.558C305.057 125.097 303.86 126.465 302.663 128.175C300.269 126.807 298.046 125.781 295.823 124.584C297.533 117.231 301.979 111.759 304.544 105.432C302.321 103.551 300.098 101.841 297.191 99.2761C299.414 98.0791 300.953 97.0531 302.492 96.5401C309.332 95.0011 313.607 90.7261 317.198 84.7411C328.826 64.5631 341.48 44.8981 353.792 24.8911C354.305 24.0361 354.989 23.1811 355.502 22.1551C356.699 20.6161 358.409 20.2741 360.119 21.3001C362.513 23.3521 365.078 25.0621 367.472 26.9431C369.353 28.3111 369.695 30.3631 369.524 32.5861C368.669 37.5451 368.156 42.8461 366.959 47.9761C364.736 57.7231 362.171 67.8121 359.606 77.5591C358.751 81.1501 358.238 84.0571 361.487 86.4511C362 86.7931 362 87.6481 362.171 87.9901C362 88.5031 361.829 89.0161 361.658 89.1871C356.528 90.0421 355.331 93.8041 354.134 98.2501C351.911 106.629 349.175 114.837 346.781 123.216C346.439 124.071 345.755 124.926 344.9 126.465ZM344.558 65.2471C344.216 65.0761 344.045 65.0761 343.703 64.9051C339.257 71.5741 334.811 78.2431 329.681 86.1091C333.272 85.2541 335.666 84.9121 337.889 84.0571C338.573 83.7151 339.599 82.8601 339.77 82.0051C341.48 76.3621 343.019 70.7191 344.558 65.2471Z" fill="#1B1916"></path>
  <path d="M265.528 83.3731C280.747 65.7601 295.795 48.6601 311.185 30.8761C313.75 32.2441 316.315 33.6121 318.88 35.1511C320.59 36.1771 320.932 37.8871 320.077 39.7681C319.564 40.6231 319.393 41.3071 318.88 41.9911C303.148 70.3771 292.375 100.473 284.68 131.766C284.509 132.108 284.167 132.621 283.996 132.963C275.788 133.476 273.565 130.911 273.565 122.874C273.907 108.339 278.695 94.8301 283.996 81.4921C284.68 79.6111 285.364 77.9011 285.364 75.5071C279.892 82.1761 274.591 89.1871 269.29 95.8561C268.264 97.3951 267.067 98.7631 266.041 100.131C261.937 105.261 258.175 106.116 252.361 102.867C251.335 102.183 250.138 100.473 249.967 99.1051C249.283 93.8041 248.257 88.5031 248.599 83.0311C249.454 69.6931 250.822 56.3551 252.019 43.0171C252.19 42.3331 252.19 41.6491 251.164 40.6231C250.651 41.9911 249.796 43.3591 249.112 44.8981C237.997 69.3511 227.395 94.3171 218.161 119.796C217.477 121.848 216.622 124.071 215.767 126.123C213.373 131.937 213.373 132.108 206.362 129.543C206.704 127.662 206.875 125.61 207.559 123.729C213.202 101.841 221.41 80.6371 230.131 59.6041C236.287 45.0691 242.443 30.7051 248.599 16.1701C250.309 12.0661 251.677 7.7911 253.387 3.6871C254.926 -0.245901 256.123 -0.587897 259.714 0.609098C267.922 3.3451 268.606 4.3711 268.264 13.0921C267.238 35.6641 266.212 58.4071 265.186 80.9791C265.186 81.6631 265.357 82.3471 265.528 83.3731Z" fill="#1B1916"></path>
  <path d="M186.487 7.79109C193.156 12.0661 194.011 13.7761 190.933 20.2741C187.513 28.4821 183.409 36.1771 179.647 44.2141C175.372 53.1061 171.097 62.1691 166.993 71.0611C165.967 72.9421 165.283 75.1651 163.915 78.2431C165.796 77.2171 166.651 76.7041 167.506 76.0201C187.684 57.5521 207.691 38.9131 227.869 20.4451C231.46 17.3671 231.631 17.1961 235.222 20.4451C235.735 20.7871 236.248 21.3001 236.761 21.8131C240.694 25.7461 240.865 26.4301 238.129 31.2181C219.49 64.9051 200.851 98.4211 182.212 132.108C181.015 134.331 179.647 136.554 178.108 138.777C175.714 142.026 173.491 142.539 169.9 140.316C166.651 137.922 163.573 135.528 160.837 132.792C158.614 130.74 156.904 127.833 159.127 123.9C161.521 125.439 163.744 126.807 166.309 128.517C179.647 106.629 190.933 83.8861 203.074 61.1431C201.877 62.1691 200.509 63.0241 199.312 64.2211C190.762 71.7451 182.554 79.6111 174.004 87.3061C171.097 89.5291 168.19 91.5811 165.112 93.6331C162.547 95.3431 159.982 95.3431 157.417 93.4621C156.733 92.7781 155.707 92.2651 155.023 91.5811C148.183 86.9641 147.157 84.5701 149.38 76.7041C150.919 71.0611 152.8 65.4181 155.707 60.1171C163.915 44.5561 172.807 28.9951 181.699 13.4341C182.383 12.0661 183.409 10.8691 184.435 9.6721C184.948 8.9881 185.632 8.64609 186.487 7.79109Z" fill="#1B1916"></path>
  <path d="M51.2993 127.662C52.6673 127.32 53.5223 126.807 54.5483 126.636C55.9163 126.465 57.2843 126.465 58.6523 126.294C64.6373 125.097 68.9123 122.874 70.1093 115.692C71.9903 104.919 76.9493 95.0011 82.0793 85.2541C89.4323 71.0611 96.9563 57.2101 104.48 43.1881C104.993 41.9911 105.677 40.7941 106.874 38.5711C104.651 39.4261 103.283 39.7681 102.086 40.2811C99.8633 41.3071 97.9823 42.3331 95.9303 43.1881C89.4323 46.0951 88.9193 46.0951 84.4733 38.9131C86.6963 37.2031 88.9193 35.3221 91.3133 33.6121C114.911 19.5901 146.375 9.15911 170.315 8.81711C172.709 8.81711 175.958 7.7911 177.497 10.3561C179.72 13.7761 181.601 17.7091 182.627 21.6421C182.969 23.1811 181.088 25.7461 179.378 27.1141C175.274 30.8761 170.999 34.4671 166.553 37.8871C154.07 47.6341 141.416 57.2101 128.933 66.9571C127.565 68.1541 126.368 69.1801 124.829 70.5481C125.342 71.0611 125.855 71.5741 126.197 71.5741C132.182 71.5741 135.431 75.1651 138.338 80.1241C140.732 84.2281 141.074 88.5031 138.338 92.4361C135.089 96.8821 131.669 101.328 127.565 105.09C110.465 120.822 89.9453 129.885 67.5443 135.186C66.0053 135.528 64.4663 135.699 62.9273 135.699C55.9163 136.041 54.7193 135.186 51.2993 127.662ZM129.788 81.8341C120.212 80.9791 111.149 81.6631 102.941 87.4771C97.1273 91.4101 93.0233 96.3691 90.6293 102.867C89.6033 105.774 87.8933 108.51 86.5253 111.417C86.1833 112.443 86.0123 113.469 85.3283 115.692C102.257 106.116 118.331 97.0531 129.788 81.8341ZM160.568 24.0361C155.438 22.6681 132.695 29.6791 125.513 31.3891C124.316 31.7311 123.119 33.2701 122.435 34.6381C118.844 42.1621 115.424 49.8571 112.004 57.3811C111.491 58.4071 111.149 59.6041 110.807 60.6301C110.978 60.8011 111.149 60.9721 111.32 61.1431C127.565 49.0021 143.639 36.6901 160.568 24.0361Z" fill="#1B1916"></path>
  <path d="M21.568 87.6481C24.133 88.8451 26.185 89.7001 28.066 90.8971C32.17 93.2911 36.103 95.5141 40.207 98.0791C44.482 100.473 46.192 104.748 47.56 109.194C48.415 112.272 46.876 113.64 43.798 112.614C42.088 112.101 40.378 111.246 38.668 110.391C28.237 104.577 17.977 98.7631 7.54601 92.9491C2.75801 90.3841 1.73201 85.2541 0.0220093 80.6371C-0.148991 79.9531 0.706009 78.4141 1.56101 77.9011C3.78401 76.5331 6.17801 75.1651 8.74301 74.3101C24.133 68.8381 39.694 63.3661 55.084 58.0651C56.623 57.3811 58.162 56.8681 59.53 56.5261C63.463 55.3291 64.147 55.6711 65.686 58.4071C67.396 62.1691 67.396 64.0501 64.318 66.2731C62.095 67.9831 59.872 69.5221 57.307 70.7191C47.218 75.6781 36.787 80.4661 26.527 85.5961C25.159 86.1091 23.62 86.6221 21.568 87.6481Z" fill="#1B1916"></path>
</svg>